<svg xmlns="http://www.w3.org/2000/svg" viewBox="0 0 250 250">
  <path fill="#e30a17" d="M 150.31551,4.5064458 113.08308,41.738871 c 0,0 -19.711024,19.711025 -4.30621,52.416765 0,0 3.19499,4.539908 -2.16558,9.900484 l -4.1585,4.1585 c 0,0 -3.651922,2.23969 -7.669703,0.91174 -4.017073,-1.32724 -28.353497,-14.410767 -48.445865,0.90312 L 7.5877704,148.77893 c 0,0 -13.5656315,12.44317 0.076226,26.08503 C 21.306137,188.5061 34.29088,174.67594 34.29088,174.67594 l 41.72425,-41.72425 c 0,0 16.938884,-14.97143 36.07086,4.16054 19.13155,19.13155 6.23187,35.68711 3.12414,38.79485 l -41.297158,41.29716 c 0,0 -10.820218,12.51006 1.554433,24.88471 12.516709,12.51671 23.251439,2.63221 24.341797,1.54185 l 37.006438,-37.00644 c 0,0 18.69965,-16.16637 5.3202,-47.23904 0,0 -4.02528,-7.51132 -0.80512,-10.73148 l 6.30386,-6.30386 c 0,0 4.55426,-4.83187 9.12281,-2.659 4.5701,2.17442 31.70016,15.32258 51.00863,-3.98589 l 36.06895,-36.068953 c 0,0 11.22115,-12.343609 -1.85955,-25.424307 -13.08048,-13.080485 -26.09761,-0.372645 -26.09761,-0.372645 l -41.97485,41.974845 c 0,0 -17.91427,14.5367 -36.19679,-3.74582 -18.28161,-18.281613 -3.05951,-37.140363 -3.05951,-37.140363 L 175.0064,34.568101 c 0,0 13.5388,-12.971555 -0.38682,-26.8971742 C 160.69474,-6.2539149 150.31133,4.5414476 150.31133,4.5414476" />
</svg>
